<svg width="122" height="124" viewBox="0 0 122 124" fill="none" xmlns="http://www.w3.org/2000/svg">
<path d="M113.022 61.7099C112.947 72.2468 109.805 82.5253 103.991 91.2496C98.177 99.9739 89.9519 106.753 80.3526 110.733C70.7532 114.713 60.2095 115.715 50.0507 113.612C39.892 111.51 30.5731 106.398 23.2689 98.9199C15.9648 91.4421 11.0025 81.9336 9.00768 71.5934C7.01286 61.2532 8.07485 50.5441 12.0597 40.8165C16.0446 31.0888 22.774 22.7781 31.3994 16.9323C40.0248 11.0864 50.1601 7.96704 60.5272 7.96753C67.4459 7.99293 74.292 9.40317 80.6744 12.1177C87.0569 14.8323 92.8508 18.798 97.7254 23.7885C102.6 28.7789 106.46 34.6964 109.084 41.2029C111.709 47.7095 113.047 54.6778 113.022 61.7099Z" fill="url(#paint0_radial)" stroke="#02797E" stroke-width="0.5685" stroke-linejoin="round"/>
<path opacity="0.168" d="M40.3401 45.1366C49.5282 44.8421 53.1462 48.3683 57.8966 53.154C58.9832 54.2467 60.1041 55.4402 61.3279 56.7228L64.843 52.8827C68.1165 49.1402 72.455 46.5264 77.2565 45.404C84.6489 44.5863 89.1477 44.9312 93.6922 48.5582C96.1768 50.2273 98.2441 52.4623 99.7299 55.0858C101.216 57.7092 102.079 60.6487 102.251 63.6707C102.28 67.8561 101.128 71.9622 98.932 75.503C96.7361 79.0438 93.5881 81.8711 89.8606 83.6502C85.0868 85.5226 79.8317 85.7069 74.9423 84.1733C69.3742 81.8247 64.6583 77.7813 61.4422 72.5987C55.0449 80.899 49.2918 85.2041 41.4838 84.8243C13.0731 83.4526 15.3987 45.7837 40.3401 45.1172V45.1366ZM46.6574 76.1133C51.0674 73.2415 54.7881 69.4015 57.5459 64.8758C54.7246 60.0592 49.1241 53.9328 44.3737 52.7316C42.2307 52.3875 40.0421 52.4763 37.9329 52.993C35.8238 53.5096 33.8356 54.4439 32.0822 55.7425C30.261 57.5634 29.0127 59.8929 28.4956 62.4357C27.9784 64.9785 28.2156 67.6201 29.1771 70.0257C30.8682 73.0231 33.5741 75.2931 36.7903 76.4124C40.0066 77.5318 43.5135 77.4241 46.6574 76.1095V76.1133ZM35.2961 62.6012L47.7935 62.6206V67.3093L35.2771 67.3287L35.2961 62.6012ZM86.5666 76.5512C88.7235 75.5965 90.6224 74.128 92.1029 72.2698C93.5834 70.4116 94.6019 68.2184 95.0723 65.8756C95.101 63.3962 94.4523 60.9573 93.1983 58.8303C91.9443 56.7034 90.1343 54.9718 87.9696 53.8282C85.3466 52.5327 82.3893 52.1081 79.5158 52.6143C76.6424 53.1206 73.9982 54.5321 71.9571 56.6492C69.3722 59.0083 67.2405 61.8345 65.6703 64.9843C67.5958 68.621 70.1459 71.8782 73.2 74.6021C75.1342 75.9417 77.3444 76.8135 79.6613 77.1506C81.9782 77.4878 84.3403 77.2814 86.5666 76.5473V76.5512ZM79.1132 67.3442L74.9652 67.3132V62.5973H79.1246V58.4162L83.3451 58.3852L83.3184 62.6206H87.4549V67.135L83.5624 67.104V71.444H79.1208L79.1132 67.3442Z" fill="black" stroke="black" stroke-width="0.0605"/>
<path d="M18.7461 63.3052C18.7461 84.0287 46.7832 91.7477 60.634 70.6444C74.9881 92.5265 101.9 83.3544 101.9 63.2819C101.9 43.2094 75.1062 33.5413 60.6187 55.9582C46.8937 33.797 18.7308 42.5778 18.7308 63.3207L18.7461 63.3052ZM26.108 63.3052C26.108 48.3477 46.9052 43.6279 56.5775 63.3052C46.7107 82.25 26.108 78.2588 26.108 63.3052ZM64.6867 63.3052C73.4021 43.2404 94.7635 48.77 94.6987 63.3362C94.6339 77.9023 73.1466 82.4477 64.6867 63.3052Z" fill="white" stroke="black" stroke-width="0.121"/>
<path d="M33.9236 61.2056H46.2647V65.3402H33.9236V61.2056Z" fill="white"/>
<path d="M78.7052 65.2788H74.6335V60.8846H78.7052V56.7461H83.0324V60.8846H87.1042V65.2788H83.0324V69.4173H78.7052V65.2788Z" fill="white"/>
<defs>
<radialGradient id="paint0_radial" cx="0" cy="0" r="1" gradientUnits="userSpaceOnUse" gradientTransform="translate(55.4488 74.3361) scale(54.574 55.8752)">
<stop stop-color="#36BAC0"/>
<stop offset="1" stop-color="#2D9094"/>
</radialGradient>
</defs>
</svg>
