<svg width="52" height="47" viewBox="0 0 52 47" fill="none" xmlns="http://www.w3.org/2000/svg">
<path fill-rule="evenodd" clip-rule="evenodd" d="M26 0C11.635 0 0 10.7822 0 24.0944C0 34.7562 7.4425 43.7615 17.7775 46.954C19.0775 47.1648 19.565 46.442 19.565 45.8095C19.565 45.2372 19.5325 43.3398 19.5325 41.3219C13 42.4363 11.31 39.8461 10.79 38.4908C10.4975 37.7981 9.23 35.6597 8.125 35.0875C7.215 34.6357 5.915 33.5213 8.0925 33.4912C10.14 33.4611 11.6025 35.2381 12.09 35.9609C14.43 39.6052 18.1675 38.5812 19.6625 37.9487C19.89 36.3825 20.5725 35.3284 21.32 34.7261C15.535 34.1237 9.49 32.0456 9.49 22.8294C9.49 20.2092 10.4975 18.0407 12.155 16.3541C11.895 15.7517 10.985 13.282 12.415 9.96906C12.415 9.96906 14.5925 9.33658 19.565 12.4387C21.645 11.8966 23.855 11.6256 26.065 11.6256C28.275 11.6256 30.485 11.8966 32.565 12.4387C37.5375 9.30646 39.715 9.96906 39.715 9.96906C41.145 13.282 40.235 15.7517 39.975 16.3541C41.6325 18.0407 42.64 20.1791 42.64 22.8294C42.64 32.0757 36.5625 34.1237 30.7775 34.7261C31.72 35.479 32.5325 36.9247 32.5325 39.1835C32.5325 42.4062 32.5 44.9963 32.5 45.8095C32.5 46.442 32.9875 47.1949 34.2875 46.954C39.4489 45.3391 43.9339 42.265 47.1113 38.1643C50.2887 34.0636 51.9984 29.1428 52 24.0944C52 10.7822 40.365 0 26 0Z" fill="#FFF2E1"/>
</svg>
