<svg width="52" height="49" viewBox="0 0 52 49" fill="none" xmlns="http://www.w3.org/2000/svg">
<path d="M26 0C18.9443 0 18.057 0.030625 15.2847 0.147C12.5125 0.2695 10.6243 0.679875 8.97 1.28625C7.23481 1.90126 5.6631 2.86597 4.36475 4.11294C3.04225 5.33701 2.0186 6.81786 1.365 8.4525C0.7215 10.0083 0.28275 11.7906 0.156 14.3937C0.0325 17.0122 0 17.8452 0 24.5031C0 31.1548 0.0325 31.9878 0.156 34.6001C0.286 37.2094 0.7215 38.9887 1.365 40.5475C2.03125 42.1584 2.9185 43.5243 4.36475 44.8871C5.80775 46.2499 7.25725 47.089 8.96675 47.7137C10.6243 48.3201 12.5093 48.7336 15.2783 48.853C18.0538 48.9694 18.9377 49 26 49C33.0623 49 33.943 48.9694 36.7185 48.853C39.4843 48.7305 41.379 48.3201 43.0332 47.7137C44.7673 47.0984 46.3379 46.1337 47.6353 44.8871C49.0815 43.5243 49.9688 42.1584 50.635 40.5475C51.2752 38.9887 51.714 37.2094 51.844 34.6001C51.9675 31.9878 52 31.1548 52 24.5C52 17.8452 51.9675 17.0122 51.844 14.3968C51.714 11.7906 51.2752 10.0083 50.635 8.4525C49.9815 6.81781 48.9578 5.33694 47.6353 4.11294C46.3373 2.86551 44.7655 1.90073 43.03 1.28625C41.3725 0.679875 39.481 0.266438 36.7152 0.147C33.9398 0.030625 33.059 0 25.9935 0H26.0033H26ZM23.6698 4.41613H26.0033C32.9453 4.41613 33.7675 4.43756 36.5072 4.557C39.0422 4.66419 40.4202 5.06537 41.3368 5.39919C42.549 5.84325 43.4167 6.37612 44.3268 7.23362C45.2368 8.09112 45.799 8.90575 46.2703 10.0511C46.6278 10.9117 47.0503 12.2102 47.164 14.5989C47.2907 17.1806 47.3167 17.9554 47.3167 24.4939C47.3167 31.0323 47.2907 31.8102 47.164 34.3919C47.0503 36.7806 46.6245 38.0761 46.2703 38.9397C45.8534 40.0035 45.1881 40.9653 44.3235 41.7541C43.4135 42.6116 42.549 43.1414 41.3335 43.5855C40.4235 43.9224 39.0455 44.3205 36.5072 44.4308C33.7675 44.5471 32.9453 44.5747 26.0033 44.5747C19.0613 44.5747 18.2358 44.5471 15.496 44.4308C12.961 44.3205 11.5863 43.9224 10.6698 43.5855C9.54037 43.1933 8.51866 42.5675 7.67975 41.7541C6.81444 40.9641 6.1481 40.0013 5.72975 38.9366C5.3755 38.0761 4.94975 36.7776 4.836 34.3888C4.7125 31.8071 4.6865 31.0323 4.6865 24.4877C4.6865 17.9462 4.7125 17.1745 4.836 14.5928C4.953 12.2041 5.3755 10.9056 5.733 10.0419C6.20425 8.89962 6.76975 8.08194 7.67975 7.22444C8.58975 6.36694 9.45425 5.83713 10.6698 5.39306C11.5863 5.05619 12.961 4.65806 15.496 4.54781C17.8945 4.44369 18.824 4.41306 23.6698 4.41V4.41613ZM39.8807 8.48312C39.471 8.48312 39.0653 8.55917 38.6868 8.70692C38.3082 8.85467 37.9643 9.07123 37.6746 9.34423C37.3849 9.61724 37.155 9.94134 36.9982 10.298C36.8414 10.6547 36.7607 11.037 36.7607 11.4231C36.7607 11.8092 36.8414 12.1915 36.9982 12.5482C37.155 12.9049 37.3849 13.229 37.6746 13.502C37.9643 13.775 38.3082 13.9916 38.6868 14.1393C39.0653 14.2871 39.471 14.3631 39.8807 14.3631C40.7082 14.3631 41.5018 14.0534 42.0869 13.502C42.672 12.9507 43.0008 12.2029 43.0008 11.4231C43.0008 10.6434 42.672 9.89559 42.0869 9.34423C41.5018 8.79287 40.7082 8.48312 39.8807 8.48312ZM26.0033 11.9192C24.2322 11.8932 22.4734 12.1994 20.8292 12.8201C19.185 13.4407 17.6882 14.3633 16.426 15.5343C15.1638 16.7053 14.1614 18.1011 13.4772 19.6406C12.793 21.1801 12.4407 22.8325 12.4407 24.5015C12.4407 26.1706 12.793 27.823 13.4772 29.3625C14.1614 30.902 15.1638 32.2978 16.426 33.4688C17.6882 34.6397 19.185 35.5624 20.8292 36.183C22.4734 36.8036 24.2322 37.1099 26.0033 37.0838C29.5085 37.0323 32.8517 35.684 35.3112 33.33C37.7707 30.9759 39.1492 27.805 39.1492 24.5015C39.1492 21.1981 37.7707 18.0271 35.3112 15.6731C32.8517 13.3191 29.5085 11.9708 26.0033 11.9192ZM26.0033 16.3323C28.3021 16.3323 30.5068 17.1928 32.1323 18.7246C33.7578 20.2563 34.671 22.3338 34.671 24.5C34.671 26.6662 33.7578 28.7437 32.1323 30.2754C30.5068 31.8072 28.3021 32.6677 26.0033 32.6677C23.7044 32.6677 21.4997 31.8072 19.8742 30.2754C18.2487 28.7437 17.3355 26.6662 17.3355 24.5C17.3355 22.3338 18.2487 20.2563 19.8742 18.7246C21.4997 17.1928 23.7044 16.3323 26.0033 16.3323Z" fill="#FFF2E1"/>
</svg>
