<svg width="60" height="54" viewBox="0 0 60 54" fill="none" xmlns="http://www.w3.org/2000/svg">
<path d="M49.6699 5.90625H10.3301C8.25 5.90625 6.5625 7.425 6.5625 9.29707V44.7029C6.5625 46.575 8.25 48.0938 10.3301 48.0938H49.6699C51.75 48.0938 53.4375 46.575 53.4375 44.7029V9.29707C53.4375 7.425 51.75 5.90625 49.6699 5.90625V5.90625ZM49.6699 44.7188C23.4316 44.7135 10.3125 44.7082 10.3125 44.7029C10.3184 21.0885 10.3242 9.28125 10.3301 9.28125C36.5684 9.28652 49.6875 9.2918 49.6875 9.29707C49.6816 32.9115 49.6758 44.7188 49.6699 44.7188ZM13.5117 21.7213H20.4668V41.8553H13.5117V21.7213ZM16.9922 18.9686C19.2129 18.9686 21.0234 17.3443 21.0234 15.3404C21.0234 14.864 20.9192 14.3922 20.7166 13.952C20.514 13.5118 20.217 13.1119 19.8427 12.775C19.4684 12.4381 19.024 12.1708 18.5349 11.9885C18.0458 11.8061 17.5216 11.7123 16.9922 11.7123C16.4628 11.7123 15.9386 11.8061 15.4495 11.9885C14.9604 12.1708 14.516 12.4381 14.1417 12.775C13.7673 13.1119 13.4704 13.5118 13.2678 13.952C13.0652 14.3922 12.9609 14.864 12.9609 15.3404C12.9551 17.3443 14.7598 18.9686 16.9922 18.9686ZM31.7754 31.8937C31.7754 29.2676 32.332 26.7258 35.9473 26.7258C39.5098 26.7258 39.5625 29.7264 39.5625 32.0625V41.8553H46.5117V30.8127C46.5117 25.3916 45.2109 21.2203 38.1738 21.2203C34.793 21.2203 32.5254 22.892 31.5938 24.474H31.5V21.7213H24.8262V41.8553H31.7754V31.8937Z" fill="#FFF2E1"/>
</svg>
