<svg width="91" height="95" viewBox="0 0 91 95" fill="none" xmlns="http://www.w3.org/2000/svg">
<path d="M60.6667 63.3334C69.043 63.3334 75.8333 56.2446 75.8333 47.5001C75.8333 38.7556 69.043 31.6667 60.6667 31.6667C52.2903 31.6667 45.5 38.7556 45.5 47.5001C45.5 56.2446 52.2903 63.3334 60.6667 63.3334Z" fill="#19BCFE"/>
<path fill-rule="evenodd" clip-rule="evenodd" d="M30.3333 94.9999C34.3558 94.9999 38.2135 93.3318 41.0578 90.3624C43.9021 87.3931 45.5 83.3658 45.5 79.1666V63.3333H30.3333C26.3109 63.3333 22.4532 65.0014 19.6089 67.9707C16.7646 70.9401 15.1667 74.9673 15.1667 79.1666C15.1667 83.3658 16.7646 87.3931 19.6089 90.3624C22.4532 93.3318 26.3109 94.9999 30.3333 94.9999Z" fill="#09CF83"/>
<path fill-rule="evenodd" clip-rule="evenodd" d="M30.3333 63.3334H45.5V31.6667H30.3333C26.3109 31.6667 22.4532 33.3349 19.6089 36.3042C16.7646 39.2735 15.1667 43.3008 15.1667 47.5001C15.1667 51.6993 16.7646 55.7266 19.6089 58.6959C22.4532 61.6653 26.3109 63.3334 30.3333 63.3334Z" fill="#A259FF"/>
<path fill-rule="evenodd" clip-rule="evenodd" d="M30.3333 31.6667H45.5V0H30.3333C26.3109 0 22.4532 1.66815 19.6089 4.63748C16.7646 7.6068 15.1667 11.6341 15.1667 15.8333C15.1667 20.0326 16.7646 24.0599 19.6089 27.0292C22.4532 29.9985 26.3109 31.6667 30.3333 31.6667Z" fill="#F24E1E"/>
<path fill-rule="evenodd" clip-rule="evenodd" d="M60.6667 31.6667H45.5V0H60.6667C64.6891 0 68.5468 1.66815 71.3911 4.63748C74.2354 7.6068 75.8333 11.6341 75.8333 15.8333C75.8333 20.0326 74.2354 24.0599 71.3911 27.0292C68.5468 29.9985 64.6891 31.6667 60.6667 31.6667Z" fill="#FF7262"/>
</svg>
