<svg width="60" height="58" viewBox="0 0 60 58" fill="none" xmlns="http://www.w3.org/2000/svg">
<path d="M13.125 9.6665H46.875C48.9503 9.66637 50.9471 10.4339 52.4556 11.8117C53.9641 13.1895 54.87 15.0731 54.9875 17.076L55 17.5207V40.479C55.0001 42.4852 54.2061 44.4153 52.7808 45.8736C51.3555 47.3318 49.407 48.2075 47.335 48.3211L46.875 48.3332H13.125C11.0497 48.3333 9.05293 47.5657 7.54442 46.188C6.03592 44.8102 5.13 42.9266 5.0125 40.9237L5 40.479V17.5207C4.99986 15.5145 5.79389 13.5843 7.21918 12.1261C8.64447 10.6679 10.593 9.79217 12.665 9.67859L13.125 9.6665H46.875H13.125ZM51.25 22.6513L30.875 33.0188C30.6449 33.1362 30.3921 33.2061 30.1326 33.224C29.873 33.2419 29.6125 33.2074 29.3675 33.1227L29.1275 33.0212L8.75 22.6537V40.479C8.75004 41.5404 9.16293 42.5629 9.9067 43.3437C10.6505 44.1245 11.6707 44.6063 12.765 44.6937L13.125 44.7082H46.875C47.9734 44.7081 49.0315 44.3086 49.8393 43.5891C50.647 42.8697 51.1453 41.8828 51.235 40.8246L51.25 40.479V22.6513ZM46.875 13.2915H13.125C12.027 13.2915 10.9692 13.6907 10.1615 14.4096C9.35384 15.1286 8.85535 16.1149 8.765 17.1727L8.75 17.5207V18.5574L30 29.3672L51.25 18.555V17.5207C51.2499 16.4589 50.8367 15.436 50.0924 14.6552C49.3481 13.8744 48.3272 13.3928 47.2325 13.306L46.875 13.2915Z" fill="#FFF2E1"/>
</svg>
