<svg width="47" height="43" viewBox="0 0 47 43" fill="none" xmlns="http://www.w3.org/2000/svg">
<g clip-path="url(#clip0)">
<path fill-rule="evenodd" clip-rule="evenodd" d="M34.1044 25.7678C33.5208 25.5009 30.6597 24.2144 30.127 24.0353C29.5943 23.8579 29.2066 23.7701 28.8169 24.304C28.4291 24.8344 27.3148 26.0348 26.976 26.3895C26.6353 26.7461 26.2965 26.7891 25.7149 26.5239C25.1332 26.2552 23.2572 25.6944 21.0345 23.8812C19.3052 22.4694 18.1361 20.7261 17.7973 20.1922C17.4585 19.66 17.7601 19.3716 18.0519 19.1064C18.3143 18.8681 18.6335 18.4847 18.9253 18.1747C19.2171 17.863 19.3131 17.6408 19.507 17.2843C19.7028 16.9295 19.6049 16.6196 19.458 16.3526C19.3131 16.0857 18.1498 13.4644 17.6642 12.3984C17.1922 11.361 16.7124 11.5026 16.356 11.4847C16.0152 11.4703 15.6275 11.4667 15.2397 11.4667C14.852 11.4667 14.2214 11.5993 13.6887 12.1332C13.1541 12.6654 11.6521 13.9536 11.6521 16.5748C11.6521 19.1942 13.7357 21.7258 14.0275 22.0824C14.3193 22.4371 18.1302 27.8157 23.968 30.1216C25.3585 30.6698 26.4414 30.9977 27.2855 31.2414C28.6798 31.6481 29.9488 31.5907 30.9515 31.4528C32.0677 31.3005 34.3942 30.1646 34.8799 28.9212C35.3636 27.6777 35.3636 26.6117 35.2187 26.3895C35.0737 26.1674 34.686 26.0348 34.1024 25.7678H34.1044ZM23.4863 39.0315H23.4785C20.0111 39.0321 16.6074 38.1793 13.6241 36.5626L12.9191 36.1792L5.59104 37.9386L7.54742 31.4026L7.08721 30.7325C5.14873 27.9095 4.12287 24.6423 4.12817 21.3084C4.13208 11.5438 12.8153 3.59953 23.4941 3.59953C28.6641 3.59953 33.5247 5.44495 37.179 8.79178C38.9814 10.434 40.41 12.3869 41.3821 14.5375C42.3542 16.6881 42.8506 18.9937 42.8425 21.3209C42.8385 31.0855 34.1553 39.0315 23.4863 39.0315V39.0315ZM39.9598 6.24941C37.8021 4.26231 35.2348 2.68674 32.4067 1.61401C29.5786 0.541271 26.5459 -0.00730328 23.4843 7.34181e-05C10.6494 7.34181e-05 0.19975 9.55862 0.195833 21.3066C0.193875 25.0619 1.26508 28.7277 3.30371 31.958L0 43.0001L12.3453 40.0367C15.7604 41.739 19.5874 42.6309 23.4765 42.631H23.4863C36.3212 42.631 46.7709 33.0725 46.7748 21.3227C46.7843 18.5228 46.1868 15.749 45.017 13.1617C43.8473 10.5744 42.1284 8.22502 39.9598 6.24941" fill="#FFF2E1"/>
</g>
<defs>
<clipPath id="clip0">
<rect width="47" height="43" fill="white"/>
</clipPath>
</defs>
</svg>
